<?xml version="1.0" encoding="UTF-8" standalone="no"?>
<!DOCTYPE svg PUBLIC "-//W3C//DTD SVG 20010904//EN"
              "http://www.w3.org/TR/2001/REC-SVG-20010904/DTD/svg10.dtd">

<svg xmlns="http://www.w3.org/2000/svg"
     width="35.3108mm" height="34.2602mm"
     viewBox="0 0 1647 1598">
  <path id="Selection"
        fill="black"
        d="M 809.00,0.22
           C 779.79,5.21 766.83,14.83 741.00,26.69
             741.00,26.69 632.00,78.74 632.00,78.74
             632.00,78.74 408.00,185.74 408.00,185.74
             408.00,185.74 322.00,226.75 322.00,226.75
             322.00,226.75 287.00,243.26 287.00,243.26
             287.00,243.26 229.00,271.22 229.00,271.22
             200.46,284.70 177.90,293.19 159.35,321.00
             144.11,343.86 140.38,371.71 134.35,398.00
             134.35,398.00 105.35,524.00 105.35,524.00
             105.35,524.00 33.35,837.00 33.35,837.00
             33.35,837.00 10.58,936.00 10.58,936.00
             7.20,951.18 0.18,976.26 0.00,991.00
             -0.20,1008.35 0.82,1020.63 7.45,1037.00
             14.06,1053.31 22.84,1063.56 33.60,1077.00
             33.60,1077.00 68.20,1120.00 68.20,1120.00
             68.20,1120.00 248.40,1344.00 248.40,1344.00
             248.40,1344.00 394.80,1526.00 394.80,1526.00
             404.40,1538.00 419.48,1558.12 430.00,1567.91
             447.87,1584.54 475.36,1596.96 500.00,1597.00
             500.00,1597.00 765.00,1597.00 765.00,1597.00
             765.00,1597.00 780.00,1598.00 780.00,1598.00
             780.00,1598.00 904.00,1598.00 904.00,1598.00
             904.00,1598.00 1128.00,1598.00 1128.00,1598.00
             1128.00,1598.00 1140.00,1596.96 1140.00,1596.96
             1140.00,1596.96 1150.00,1596.96 1150.00,1596.96
             1169.89,1594.94 1186.18,1589.98 1203.00,1578.92
             1218.35,1568.83 1228.69,1555.14 1240.00,1541.00
             1240.00,1541.00 1277.00,1495.00 1277.00,1495.00
             1277.00,1495.00 1475.45,1248.00 1475.45,1248.00
             1475.45,1248.00 1592.80,1102.00 1592.80,1102.00
             1608.61,1082.42 1631.68,1057.13 1640.54,1034.00
             1645.63,1020.72 1647.16,1007.09 1647.00,993.00
             1646.81,977.09 1637.87,942.83 1633.88,926.00
             1633.88,926.00 1610.65,825.00 1610.65,825.00
             1610.65,825.00 1534.65,495.00 1534.65,495.00
             1534.65,495.00 1508.88,383.00 1508.88,383.00
             1502.48,356.00 1498.73,331.38 1478.91,310.00
             1459.41,288.96 1445.59,284.64 1421.00,272.74
             1421.00,272.74 1356.00,241.69 1356.00,241.69
             1356.00,241.69 1275.00,202.78 1275.00,202.78
             1275.00,202.78 1111.00,124.74 1111.00,124.74
             1111.00,124.74 980.00,62.22 980.00,62.22
             980.00,62.22 914.00,30.69 914.00,30.69
             889.22,19.31 858.58,0.33 831.00,0.22
             831.00,0.22 809.00,0.22 809.00,0.22 Z
           M 1248.00,964.00
           C 1226.48,1028.56 1195.57,1082.03 1149.09,1132.00
             1149.09,1132.00 1135.00,1146.91 1135.00,1146.91
             1117.86,1162.88 1100.14,1178.03 1081.00,1191.58
             1081.00,1191.58 1062.00,1204.31 1062.00,1204.31
             1059.86,1205.68 1055.01,1208.32 1053.78,1210.33
             1051.58,1213.91 1055.74,1219.16 1056.19,1223.00
             1056.72,1227.61 1052.56,1233.58 1053.20,1240.00
             1053.76,1245.66 1060.02,1256.56 1062.75,1262.00
             1070.32,1277.03 1079.71,1291.27 1089.42,1305.00
             1100.15,1320.17 1112.34,1337.41 1110.91,1357.00
             1108.63,1388.34 1071.78,1398.36 1051.09,1376.96
             1040.79,1366.30 1035.70,1347.07 1031.58,1333.00
             1026.00,1313.96 1019.40,1294.88 1010.74,1277.00
             1007.83,1270.98 1005.63,1266.69 1000.00,1262.63
             995.74,1259.57 990.31,1258.31 987.53,1255.59
             984.88,1252.99 982.49,1247.46 981.00,1244.00
             966.16,1250.90 938.45,1257.93 922.00,1261.65
             866.58,1274.20 801.92,1275.66 746.00,1265.58
             727.43,1262.23 709.07,1257.72 691.00,1252.28
             691.00,1252.28 666.00,1244.00 666.00,1244.00
             664.90,1247.85 662.30,1253.71 659.39,1256.49
             657.33,1258.47 652.03,1260.13 649.00,1261.88
             642.89,1265.40 641.33,1267.90 638.25,1274.00
             629.19,1291.92 622.07,1310.72 616.42,1330.00
             611.78,1345.88 606.26,1367.34 593.99,1378.91
             576.01,1395.85 546.30,1391.38 537.70,1367.00
             536.33,1363.13 535.23,1357.09 535.51,1353.00
             536.73,1335.15 546.43,1322.09 556.28,1308.00
             564.73,1295.91 574.72,1280.89 581.69,1268.00
             584.41,1262.97 592.71,1246.83 593.62,1242.00
             594.84,1235.54 590.99,1229.10 590.84,1225.00
             590.71,1221.41 594.77,1213.57 596.00,1209.00
             590.24,1206.87 586.13,1203.64 581.00,1200.42
             568.49,1192.59 556.53,1183.61 545.00,1174.40
             498.97,1137.63 462.34,1093.18 433.42,1042.00
             424.00,1025.32 416.09,1007.78 409.00,990.00
             409.00,990.00 403.34,975.00 403.34,975.00
             402.49,972.58 401.27,968.30 399.35,966.60
             395.18,962.90 389.93,968.52 383.00,966.01
             378.47,964.36 373.97,960.15 367.00,959.64
             362.85,959.33 347.69,963.38 343.00,964.71
             343.00,964.71 307.00,976.81 307.00,976.81
             307.00,976.81 283.00,986.33 283.00,986.33
             269.89,990.75 256.79,994.48 243.00,990.23
             213.90,981.25 210.90,943.94 236.00,928.27
             245.12,922.57 259.32,919.82 270.00,918.96
             270.00,918.96 278.00,918.96 278.00,918.96
             301.00,916.64 321.22,915.52 344.00,910.12
             349.47,908.82 354.62,907.72 358.91,903.79
             362.94,900.09 364.73,895.21 368.18,892.93
             371.06,891.03 378.48,889.50 382.00,889.00
             382.00,889.00 380.17,873.00 380.17,873.00
             380.17,873.00 378.91,855.00 378.91,855.00
             378.91,855.00 378.00,843.00 378.00,843.00
             378.00,843.00 378.00,810.00 378.00,810.00
             378.00,810.00 378.91,798.00 378.91,798.00
             381.31,762.90 386.72,727.59 397.67,694.00
             404.91,671.79 416.08,641.11 427.42,621.00
             427.42,621.00 442.05,595.00 442.05,595.00
             443.40,592.85 449.23,584.17 449.34,582.28
             449.58,578.36 442.23,575.43 440.56,569.91
             439.46,566.29 440.78,562.09 437.01,556.00
             432.78,549.18 420.83,540.27 414.00,535.67
             414.00,535.67 375.00,511.30 375.00,511.30
             360.28,503.22 340.93,492.35 334.46,476.00
             326.98,457.10 335.55,435.31 356.00,429.92
             363.35,427.99 371.88,428.96 379.00,431.36
             393.12,436.11 399.96,444.95 410.00,455.00
             426.51,471.54 441.45,489.12 460.00,503.58
             463.76,506.51 468.38,510.41 473.00,511.90
             479.24,513.31 481.79,511.70 486.00,511.90
             490.77,512.65 495.84,516.59 499.00,520.00
             513.16,505.84 527.34,491.97 543.00,479.45
             594.63,438.15 655.51,408.15 720.00,393.35
             738.85,389.02 764.87,383.88 784.00,383.00
             784.07,379.87 784.73,371.61 786.02,369.00
             786.02,369.00 793.44,359.00 793.44,359.00
             796.91,353.49 796.99,350.23 797.00,344.00
             797.03,327.78 796.10,312.07 793.73,296.00
             793.73,296.00 788.00,253.00 788.00,253.00
             787.88,242.14 789.98,229.52 797.21,221.00
             813.38,201.96 841.33,203.83 853.65,226.00
             857.13,232.26 859.19,243.86 858.96,251.00
             858.96,251.00 858.09,259.00 858.09,259.00
             858.09,259.00 850.00,324.00 850.00,324.00
             849.88,334.37 847.24,346.14 851.53,356.00
             854.16,362.04 858.63,364.75 860.69,369.00
             863.37,374.54 860.32,380.16 864.31,382.83
             866.28,384.13 869.68,383.93 872.00,384.17
             872.00,384.17 888.00,386.13 888.00,386.13
             888.00,386.13 939.00,396.71 939.00,396.71
             992.28,411.86 1034.31,431.54 1080.00,463.02
             1094.35,472.91 1115.73,489.90 1128.00,502.00
             1128.00,502.00 1139.83,513.08 1139.83,513.08
             1141.51,514.77 1143.39,517.61 1146.04,517.47
             1148.81,517.32 1153.11,512.82 1157.00,511.87
             1159.50,511.12 1163.86,512.07 1167.00,511.87
             1171.83,511.78 1175.85,510.03 1180.00,507.66
             1194.47,499.42 1220.88,470.98 1232.91,458.00
             1242.45,447.71 1250.98,437.98 1264.00,431.78
             1286.83,420.92 1316.51,434.42 1314.91,462.00
             1313.38,488.20 1290.33,500.14 1270.00,511.30
             1270.00,511.30 1230.00,536.58 1230.00,536.58
             1224.63,540.43 1213.71,548.94 1210.11,554.09
             1206.02,559.93 1207.14,564.87 1205.44,569.00
             1203.18,574.49 1196.39,577.68 1196.44,582.00
             1196.46,584.14 1199.39,588.10 1200.58,590.00
             1200.58,590.00 1210.15,606.00 1210.15,606.00
             1219.30,622.03 1231.03,645.81 1237.58,663.00
             1254.98,708.70 1265.91,756.10 1268.04,805.00
             1268.04,805.00 1269.00,818.00 1269.00,818.00
             1269.00,818.00 1269.00,841.00 1269.00,841.00
             1269.00,841.00 1268.09,853.00 1268.09,853.00
             1268.09,853.00 1266.91,873.00 1266.91,873.00
             1266.69,876.02 1265.11,884.26 1266.31,886.70
             1268.14,890.43 1275.79,889.62 1280.68,894.27
             1283.41,896.87 1285.60,901.77 1291.00,904.92
             1295.51,907.55 1306.55,909.64 1312.00,910.88
             1331.93,915.40 1352.75,915.90 1373.00,917.83
             1389.64,919.42 1407.80,921.04 1419.33,935.04
             1433.04,951.69 1429.89,975.33 1411.00,986.53
             1402.75,991.42 1397.13,991.10 1388.00,991.00
             1375.73,990.85 1362.30,985.12 1351.00,980.60
             1334.32,973.93 1318.49,967.52 1301.00,963.13
             1294.84,961.58 1284.13,958.67 1278.00,959.10
             1270.43,959.63 1267.12,964.12 1262.00,965.50
             1257.94,966.60 1251.96,965.21 1248.00,964.00 Z
           M 575.00,574.00
           C 575.00,574.00 617.00,603.58 617.00,603.58
             617.00,603.58 687.00,653.29 687.00,653.29
             687.00,653.29 715.00,673.02 715.00,673.02
             722.12,677.93 729.05,682.60 738.00,682.96
             741.46,683.10 744.68,682.82 748.00,681.78
             760.58,677.85 767.55,667.79 768.96,655.00
             768.96,655.00 768.96,645.00 768.96,645.00
             768.96,645.00 770.00,635.00 770.00,635.00
             770.00,635.00 771.00,616.00 771.00,616.00
             771.00,616.00 772.00,599.00 772.00,599.00
             772.00,599.00 774.00,562.00 774.00,562.00
             774.00,562.00 775.00,547.00 775.00,547.00
             775.00,547.00 776.00,530.00 776.00,530.00
             776.00,530.00 777.00,512.00 777.00,512.00
             777.00,512.00 778.04,494.00 778.04,494.00
             778.04,494.00 778.04,486.00 778.04,486.00
             778.04,486.00 779.00,475.00 779.00,475.00
             767.81,475.24 740.41,481.40 729.00,484.58
             689.49,495.56 651.44,512.68 618.00,536.58
             605.74,545.34 583.42,562.24 575.00,574.00 Z
           M 868.00,475.00
           C 868.00,475.00 869.00,505.00 869.00,505.00
             869.00,505.00 870.00,522.00 870.00,522.00
             870.00,522.00 871.00,537.00 871.00,537.00
             871.00,537.00 872.00,555.00 872.00,555.00
             872.00,555.00 873.04,572.00 873.04,572.00
             873.04,572.00 873.04,580.00 873.04,580.00
             873.04,580.00 874.00,590.00 874.00,590.00
             874.00,590.00 876.00,628.00 876.00,628.00
             876.00,628.00 877.00,645.00 877.00,645.00
             877.04,651.92 877.88,662.00 881.36,668.00
             888.34,680.03 905.20,685.82 918.00,680.10
             923.17,677.78 932.87,670.31 938.00,666.72
             938.00,666.72 977.00,639.14 977.00,639.14
             977.00,639.14 1034.00,598.72 1034.00,598.72
             1034.00,598.72 1070.00,573.00 1070.00,573.00
             1065.97,567.38 1059.36,562.11 1054.00,557.59
             1044.08,549.23 1033.78,541.22 1023.00,534.00
             985.66,508.99 943.96,490.28 900.00,480.58
             889.47,478.25 878.77,475.87 868.00,475.00 Z
           M 1125.00,642.00
           C 1125.00,642.00 1079.00,683.17 1079.00,683.17
             1079.00,683.17 1016.00,739.72 1016.00,739.72
             1016.00,739.72 999.00,754.93 999.00,754.93
             988.10,764.82 979.62,772.79 982.32,789.00
             986.09,811.56 1011.81,815.39 1030.00,820.58
             1030.00,820.58 1127.00,848.58 1127.00,848.58
             1127.00,848.58 1177.00,863.00 1177.00,863.00
             1177.00,863.00 1178.00,845.00 1178.00,845.00
             1178.00,845.00 1178.00,813.00 1178.00,813.00
             1178.00,813.00 1176.16,791.00 1176.16,791.00
             1172.46,756.40 1165.71,730.55 1153.68,698.00
             1148.88,685.01 1142.87,672.19 1136.31,660.00
             1133.13,654.11 1129.86,646.55 1125.00,642.00 Z
           M 519.00,643.00
           C 489.68,693.92 469.69,752.79 469.00,812.00
             469.00,812.00 468.00,828.00 468.00,828.00
             468.00,828.00 469.00,842.00 469.00,842.00
             469.00,842.00 470.00,863.00 470.00,863.00
             470.00,863.00 608.00,823.42 608.00,823.42
             608.00,823.42 639.00,814.33 639.00,814.33
             647.71,811.49 654.56,809.29 659.73,801.00
             665.65,791.52 665.78,777.20 659.21,768.00
             655.67,763.04 645.04,754.55 640.00,749.92
             640.00,749.92 565.00,682.84 565.00,682.84
             565.00,682.84 538.00,658.84 538.00,658.84
             532.51,653.93 525.08,646.55 519.00,643.00 Z
           M 796.29,771.02
           C 791.40,774.92 777.11,793.86 772.20,800.00
             769.95,802.81 763.71,809.94 762.91,813.00
             762.08,816.16 766.14,831.90 767.13,836.00
             767.13,836.00 771.87,856.00 771.87,856.00
             772.47,858.38 773.53,863.72 774.93,865.51
             776.50,867.51 784.33,870.91 787.00,872.25
             787.00,872.25 810.00,883.24 810.00,883.24
             812.86,884.65 820.07,888.20 823.00,888.24
             825.90,888.27 833.03,884.87 836.00,883.58
             836.00,883.58 859.00,872.26 859.00,872.26
             859.00,872.26 870.72,866.65 870.72,866.65
             873.59,864.46 873.70,861.29 874.42,858.00
             874.42,858.00 879.21,837.00 879.21,837.00
             880.23,832.29 884.37,816.73 883.53,813.00
             882.63,808.96 872.85,797.75 869.75,794.00
             869.75,794.00 857.61,779.00 857.61,779.00
             855.60,776.53 852.73,772.47 849.96,771.02
             847.82,769.90 845.34,770.02 843.00,770.00
             843.00,770.00 813.00,770.00 813.00,770.00
             807.79,770.00 801.12,769.23 796.29,771.02 Z
           M 1016.00,1125.00
           C 1022.60,1122.48 1030.27,1116.43 1036.00,1112.13
             1047.56,1103.46 1058.78,1094.22 1069.00,1084.00
             1069.00,1084.00 1084.83,1068.00 1084.83,1068.00
             1114.70,1034.99 1142.83,991.42 1157.00,949.00
             1157.00,949.00 1037.00,928.59 1037.00,928.59
             1037.00,928.59 974.00,918.09 974.00,918.09
             958.14,917.19 943.34,932.13 944.52,948.00
             945.10,955.84 949.52,964.73 952.58,972.00
             952.58,972.00 966.99,1007.00 966.99,1007.00
             966.99,1007.00 997.99,1082.00 997.99,1082.00
             997.99,1082.00 1016.00,1125.00 1016.00,1125.00 Z
           M 491.00,949.00
           C 493.63,960.54 502.33,977.14 507.75,988.00
             526.84,1026.18 553.44,1060.43 585.00,1089.07
             585.00,1089.07 614.00,1112.87 614.00,1112.87
             619.47,1116.97 625.45,1121.92 632.00,1124.00
             632.00,1124.00 660.58,1055.00 660.58,1055.00
             660.58,1055.00 688.28,988.00 688.28,988.00
             695.27,971.76 708.47,948.79 697.15,932.00
             687.10,917.08 674.62,917.97 659.00,920.59
             659.00,920.59 641.00,923.59 641.00,923.59
             641.00,923.59 491.00,949.00 491.00,949.00 Z
           M 712.00,1164.00
           C 712.00,1164.00 732.00,1169.63 732.00,1169.63
             732.00,1169.63 778.00,1178.72 778.00,1178.72
             830.70,1185.66 885.39,1180.56 936.00,1164.00
             936.00,1164.00 912.31,1120.00 912.31,1120.00
             912.31,1120.00 862.42,1030.00 862.42,1030.00
             862.42,1030.00 852.42,1012.00 852.42,1012.00
             845.22,999.41 840.71,992.56 825.00,991.17
             802.74,989.21 795.91,1010.18 787.14,1026.00
             787.14,1026.00 735.70,1119.00 735.70,1119.00
             735.70,1119.00 719.69,1148.00 719.69,1148.00
             716.87,1153.21 713.38,1158.18 712.00,1164.00 Z" />
</svg>
