<?xml version="1.0" encoding="UTF-8" standalone="no"?>
<!DOCTYPE svg PUBLIC "-//W3C//DTD SVG 20010904//EN"
              "http://www.w3.org/TR/2001/REC-SVG-20010904/DTD/svg10.dtd">

<svg xmlns="http://www.w3.org/2000/svg"
     width="62.5636mm" height="101.729mm"
     viewBox="0 0 369 600">
  <path id="Selection"
        fill="black" stroke="black" stroke-width="1"
        d="M 83.00,398.00
           C 83.00,398.00 83.00,435.00 83.00,435.00
             82.99,437.71 83.32,441.35 81.40,443.49
             79.79,445.29 71.86,447.60 69.00,448.86
             61.56,452.14 54.06,456.75 48.00,462.17
             29.55,478.67 21.72,500.78 22.00,525.00
             22.11,533.77 25.05,546.07 28.78,554.00
             35.29,567.85 45.06,579.61 58.00,587.91
             94.31,611.20 144.34,600.49 167.56,564.00
             187.54,532.63 182.78,490.09 155.96,464.09
             150.68,458.97 141.68,452.99 135.00,449.78
             131.56,448.13 120.60,444.96 119.02,442.58
             117.78,440.71 118.00,437.21 118.00,435.00
             118.00,435.00 118.00,408.00 118.00,408.00
             118.00,405.76 117.79,402.21 119.02,400.30
             120.67,397.75 124.30,397.42 127.00,396.77
             127.00,396.77 140.00,392.55 140.00,392.55
             153.97,386.89 170.59,375.55 179.00,363.00
             184.48,367.64 209.29,385.58 215.00,388.00
             205.31,424.55 219.88,462.25 254.00,480.22
             263.18,485.06 275.58,488.87 286.00,489.00
             286.00,489.00 294.00,489.00 294.00,489.00
             323.27,488.95 348.89,470.73 361.75,445.00
             365.66,437.18 368.89,427.81 369.00,419.00
             369.14,407.15 369.83,396.40 365.92,385.00
             352.86,346.87 315.40,325.30 276.00,332.46
             264.58,334.54 253.31,339.46 244.00,346.38
             240.59,348.91 234.15,356.09 230.00,354.89
             228.07,354.33 222.86,350.47 221.00,349.14
             221.00,349.14 205.00,337.72 205.00,337.72
             202.63,336.05 198.66,333.97 198.11,330.91
             197.78,329.05 199.83,322.32 200.34,320.00
             200.34,320.00 202.96,300.00 202.96,300.00
             203.14,295.26 201.39,281.86 200.34,277.00
             199.64,273.77 197.41,268.07 198.92,265.09
             200.53,261.94 214.29,253.20 218.00,250.58
             220.36,248.90 229.51,241.81 231.72,241.66
             234.07,241.49 236.44,244.48 238.01,245.97
             241.86,249.61 244.49,251.64 249.00,254.39
             260.94,261.66 273.95,265.98 288.00,266.00
             288.00,266.00 294.00,266.00 294.00,266.00
             326.48,265.95 356.25,242.68 365.97,212.00
             369.92,199.54 369.15,191.81 369.00,179.00
             368.91,171.50 367.25,165.95 364.68,159.00
             349.75,118.64 305.29,98.80 265.00,112.36
             230.37,124.01 211.59,155.57 212.00,191.00
             212.00,191.00 213.52,207.91 213.52,207.91
             212.43,211.02 206.71,214.49 204.00,216.42
             204.00,216.42 179.00,234.00 179.00,234.00
             172.04,221.03 152.43,209.39 139.00,203.86
             135.12,202.26 120.73,199.08 119.02,196.57
             117.78,194.75 118.00,191.17 118.00,189.00
             118.00,189.00 118.00,155.00 118.00,155.00
             128.32,153.54 137.51,149.22 146.00,143.28
             194.87,109.07 190.16,33.60 136.00,7.26
             127.88,3.31 118.08,0.11 109.00,0.00
             109.00,0.00 92.00,0.00 92.00,0.00
             81.24,0.13 69.15,5.00 60.00,10.45
             22.59,32.76 10.31,83.24 33.69,120.00
             41.51,132.29 52.03,142.09 65.00,148.74
             79.64,156.24 82.81,152.07 83.00,162.00
             83.00,162.00 83.00,189.00 83.00,189.00
             83.00,191.21 83.21,194.81 81.98,196.69
             80.50,198.94 77.41,199.27 75.00,199.89
             70.26,201.12 65.54,202.76 61.00,204.60
             46.81,210.35 33.29,220.31 23.44,232.00
             11.41,246.28 0.23,269.01 0.00,288.00
             0.00,288.00 0.00,307.00 0.00,307.00
             0.05,339.79 24.44,373.72 53.00,388.24
             61.76,392.70 73.11,397.54 83.00,398.00 Z
           M 97.00,41.29
           C 128.28,38.42 149.13,72.80 131.64,99.00
             128.40,103.84 125.87,106.16 121.00,109.30
             116.59,112.14 112.21,113.95 107.00,114.70
             95.51,116.36 83.46,113.04 75.04,104.91
             59.91,90.30 60.14,64.42 76.09,50.47
             82.24,45.09 89.09,42.60 97.00,41.29 Z
           M 287.00,150.30
           C 325.56,146.49 343.63,197.43 311.00,218.45
             306.90,221.10 301.83,223.00 297.00,223.70
             261.38,228.84 239.47,187.03 264.30,161.17
             270.51,154.70 278.42,151.90 287.00,150.30 Z
           M 98.00,246.29
           C 103.91,245.79 110.33,247.02 116.00,248.72
             160.01,261.93 166.10,321.72 126.00,343.82
             115.84,349.42 109.30,350.13 98.00,350.00
             62.12,349.57 39.24,310.31 52.87,278.00
             58.68,264.25 70.66,253.19 85.00,248.77
             85.00,248.77 98.00,246.29 98.00,246.29 Z
           M 286.00,373.30
           C 311.78,370.74 332.53,392.38 326.99,418.00
             325.52,424.78 322.65,430.85 317.82,435.91
             314.78,439.08 310.03,442.20 306.00,443.96
             300.33,446.43 295.13,447.13 289.00,446.99
             263.52,446.40 246.99,419.21 256.47,396.00
             261.63,383.38 272.94,375.77 286.00,373.30 Z
           M 98.00,484.29
           C 137.70,480.94 153.77,535.79 118.00,554.18
             110.88,557.84 106.77,558.09 99.00,558.00
             71.72,557.67 56.07,527.51 67.99,504.00
             74.25,491.67 84.93,486.28 98.00,484.29 Z" />
</svg>
