<?xml version="1.0" encoding="UTF-8" standalone="no"?>
<!DOCTYPE svg PUBLIC "-//W3C//DTD SVG 20010904//EN"
              "http://www.w3.org/TR/2001/REC-SVG-20010904/DTD/svg10.dtd">

<svg xmlns="http://www.w3.org/2000/svg"
     width="59.2802mm" height="48.3416mm"
     viewBox="0 0 168 137">
  <path id="Selection"
        fill="black" stroke="black" stroke-width="1"
        d="M 83.00,0.42
           C 83.00,0.42 67.00,2.90 67.00,2.90
             44.25,8.42 21.68,21.49 9.45,42.00
             1.68,55.02 -0.07,63.09 0.00,78.00
             0.16,112.81 36.90,136.62 69.00,137.00
             69.00,137.00 80.00,137.00 80.00,137.00
             109.74,136.95 144.01,120.10 159.13,94.00
             162.87,87.53 165.75,80.42 166.87,73.00
             168.34,63.25 168.51,57.71 166.10,48.00
             157.54,13.41 115.70,-3.56 83.00,0.42 Z
           M 85.00,5.28
           C 120.00,2.03 160.70,22.34 162.91,61.00
             163.34,68.55 160.11,80.25 156.73,87.00
             142.97,114.51 109.24,131.95 79.00,132.00
             79.00,132.00 71.00,132.00 71.00,132.00
             38.14,131.61 4.85,109.41 5.00,74.00
             5.04,64.91 7.61,55.94 12.04,48.00
             22.68,28.92 42.19,15.39 63.00,9.43
             71.51,6.99 76.50,6.51 85.00,5.28 Z
           M 82.00,21.46
           C 73.69,23.31 65.47,26.51 59.00,32.18
             28.43,58.99 40.36,109.71 81.00,118.19
             86.88,119.19 93.08,119.45 99.00,118.19
             114.04,115.67 126.62,107.56 134.10,94.00
             148.46,67.94 136.33,33.72 108.00,23.70
             99.93,20.84 90.45,20.29 82.00,21.46 Z
           M 85.00,26.29
           C 95.60,25.28 104.83,26.78 114.00,32.47
             135.52,45.82 141.54,74.35 126.96,95.00
             123.38,100.06 119.24,103.98 114.00,107.29
             108.35,110.86 101.61,112.85 95.00,113.71
             67.56,117.27 44.32,91.68 47.17,65.00
             49.37,44.45 65.04,29.60 85.00,26.29 Z
           M 77.00,38.52
           C 68.54,40.79 62.16,44.26 57.48,52.00
             45.51,71.79 57.74,98.71 82.00,99.00
             87.99,99.07 91.38,99.28 97.00,96.68
             118.89,86.53 120.66,56.54 101.00,42.80
             94.14,38.00 85.07,37.24 77.00,38.52 Z
           M 80.00,43.30
           C 88.73,42.43 96.54,44.54 102.67,51.17
             114.26,63.70 110.48,84.32 95.00,91.67
             90.31,93.90 87.09,94.11 82.00,93.99
             63.97,93.55 53.04,74.04 60.35,58.00
             64.19,49.57 71.15,45.03 80.00,43.30 Z" />
</svg>
