<?xml version="1.0" encoding="UTF-8" standalone="no"?>
<!DOCTYPE svg PUBLIC "-//W3C//DTD SVG 20010904//EN"
              "http://www.w3.org/TR/2001/REC-SVG-20010904/DTD/svg10.dtd">

<svg xmlns="http://www.w3.org/2000/svg"
     width="5.08333in" height="4.98611in"
     viewBox="0 0 366 359">
  <path id="Selection"
        fill="black"
        d="M 51.00,62.00
           C 54.39,62.03 63.04,63.58 65.00,62.81
             67.03,62.01 74.69,54.86 77.00,52.87
             83.65,47.16 91.51,41.13 99.00,36.60
             121.30,23.12 150.67,12.31 177.00,12.00
             177.00,12.00 193.00,12.00 193.00,12.00
             213.79,12.03 242.60,20.23 261.00,29.78
             283.03,41.22 303.71,58.15 318.63,78.00
             355.22,126.70 364.28,191.12 338.69,247.00
             328.25,269.79 316.87,284.54 299.00,301.99
             286.30,314.38 268.26,325.95 252.00,333.14
             229.54,343.07 206.42,347.04 182.00,347.00
             148.75,346.95 112.29,333.41 86.00,313.35
             49.73,285.65 22.26,241.25 18.96,195.00
             18.96,195.00 18.96,187.00 18.96,187.00
             18.96,187.00 18.08,180.00 18.08,180.00
             18.08,180.00 19.12,171.00 19.12,171.00
             19.12,171.00 19.12,162.00 19.12,162.00
             21.15,146.45 24.61,145.02 20.63,129.00
             19.69,125.25 19.04,122.33 17.00,119.00
             10.14,134.65 8.06,152.16 6.91,169.00
             6.91,169.00 6.02,180.00 6.02,180.00
             6.02,180.00 7.04,189.00 7.04,189.00
             7.04,189.00 7.04,197.00 7.04,197.00
             9.73,223.87 18.52,249.91 32.45,273.00
             41.23,287.56 52.45,300.68 65.00,312.07
             132.04,372.92 232.76,374.17 302.00,316.25
             318.77,302.22 334.89,282.59 344.75,263.00
             355.56,241.52 364.96,214.29 365.00,190.00
             365.00,190.00 365.00,167.00 365.00,167.00
             364.84,153.67 360.24,134.71 356.00,122.00
             325.52,30.63 228.10,-19.76 136.00,6.71
             111.20,13.84 88.59,26.03 69.00,42.87
             63.20,47.86 54.22,55.18 51.00,62.00 Z
           M 86.00,87.00
           C 90.78,82.94 95.42,74.77 98.00,69.00
             99.17,75.05 95.90,81.30 94.00,87.00
             90.39,97.84 88.02,104.30 88.00,116.00
             87.97,136.65 90.03,157.54 92.87,178.00
             92.87,178.00 96.80,203.00 96.80,203.00
             97.30,205.56 97.81,210.50 100.31,211.81
             102.97,213.21 110.48,210.81 112.82,209.16
             116.35,206.66 118.90,200.63 121.61,197.00
             125.32,192.04 129.34,189.54 134.00,185.74
             147.29,174.93 168.62,151.07 183.00,145.71
             200.78,139.08 222.83,145.70 235.83,159.09
             240.64,164.04 243.33,168.84 246.22,175.00
             248.28,179.39 251.10,187.20 251.20,192.00
             251.20,192.00 251.20,199.00 251.20,199.00
             246.50,194.74 244.58,185.86 241.74,180.00
             233.38,162.73 223.75,150.77 203.00,151.00
             187.66,151.18 176.83,158.19 165.00,167.13
             152.52,176.56 141.03,187.24 130.72,199.00
             121.65,209.34 114.61,217.44 114.04,232.00
             113.64,242.18 116.82,246.42 123.08,254.00
             131.70,264.43 139.82,270.25 153.00,273.62
             162.93,276.17 174.10,274.27 181.00,283.00
             171.49,282.99 156.91,281.48 148.00,278.30
             132.57,272.79 120.25,260.93 110.63,248.00
             110.63,248.00 99.90,232.00 99.90,232.00
             99.90,232.00 93.00,215.00 93.00,215.00
             85.48,193.38 83.95,178.65 82.96,156.00
             82.96,156.00 82.00,141.00 82.00,141.00
             82.00,141.00 81.09,131.00 81.09,131.00
             80.21,118.19 79.14,105.63 76.60,93.00
             75.41,87.11 72.92,77.69 68.61,73.39
             63.99,68.77 53.35,67.08 47.00,67.00
             35.37,66.87 22.78,66.75 12.00,71.80
             8.50,73.43 2.47,77.24 1.17,81.00
             0.02,84.30 2.85,86.60 5.02,88.58
             10.50,93.56 13.94,96.80 18.23,103.00
             29.01,118.58 29.79,136.77 30.00,155.00
             30.00,155.00 31.00,170.00 31.00,170.00
             31.03,186.09 33.43,204.66 38.34,220.00
             53.94,268.65 87.77,307.73 137.00,324.00
             147.23,327.38 164.30,330.87 175.00,331.00
             190.32,331.18 203.91,331.59 219.00,328.11
             251.12,320.71 276.52,303.57 298.15,279.00
             306.80,269.18 313.15,260.77 318.88,249.00
             340.17,206.73 339.85,148.23 318.88,106.00
             302.89,74.32 271.38,47.34 238.00,35.69
             223.22,30.54 207.50,29.82 192.00,30.00
             171.51,30.24 143.81,36.79 125.00,44.87
             125.00,44.87 105.00,55.60 105.00,55.60
             96.45,59.60 83.94,56.58 80.02,63.21
             76.33,69.46 84.19,80.65 86.00,87.00 Z
           M 152.00,108.00
           C 156.33,103.58 163.77,100.62 165.29,94.00
             166.94,86.87 158.48,87.91 155.60,84.57
             152.98,81.53 154.96,76.92 152.40,74.81
             150.59,73.12 147.90,74.05 146.00,74.81
             140.42,77.46 137.45,81.62 135.00,87.00
             131.84,78.35 140.01,65.18 153.00,66.12
             168.20,67.21 182.09,91.76 165.00,103.04
             160.90,105.74 156.75,107.03 152.00,108.00 Z
           M 144.00,122.00
           C 144.00,122.00 144.00,123.00 144.00,123.00
             144.00,123.00 143.00,122.00 143.00,122.00
             143.00,122.00 144.00,122.00 144.00,122.00 Z
           M 143.00,123.00
           C 140.22,135.18 135.57,147.07 123.00,152.00
             123.00,152.00 132.97,138.00 132.97,138.00
             132.97,138.00 143.00,123.00 143.00,123.00 Z
           M 123.00,152.00
           C 123.00,152.00 123.00,153.00 123.00,153.00
             123.00,153.00 122.00,152.00 122.00,152.00
             122.00,152.00 123.00,152.00 123.00,152.00 Z" />
</svg>
