<?xml version="1.0" encoding="UTF-8" standalone="no"?>
<!DOCTYPE svg PUBLIC "-//W3C//DTD SVG 20010904//EN"
              "http://www.w3.org/TR/2001/REC-SVG-20010904/DTD/svg10.dtd">

<svg xmlns="http://www.w3.org/2000/svg"
     width="5.93056in" height="4.44444in"
     viewBox="0 0 427 320">
  <path id="Selection"
        fill="black"
        d="M 81.00,218.00
           C 81.00,218.00 81.00,220.00 81.00,220.00
             63.26,227.26 33.68,246.65 22.29,262.01
             19.60,265.64 17.55,269.82 15.87,274.00
             14.28,277.92 13.33,284.72 13.09,289.00
             12.22,304.36 20.06,319.79 37.00,320.00
             37.00,320.00 52.00,320.00 52.00,320.00
             60.97,319.99 59.94,319.59 68.00,316.53
             92.96,307.04 112.96,282.34 112.77,255.00
             112.77,255.00 112.77,234.00 112.77,234.00
             111.98,231.06 109.43,225.64 110.35,223.18
             111.60,219.83 125.31,212.73 129.00,211.00
             124.42,231.33 121.60,254.32 133.27,273.00
             134.95,275.69 137.12,278.36 140.00,279.83
             144.40,282.06 154.95,281.56 158.82,278.43
             164.47,273.85 173.04,255.27 175.00,248.00
             177.39,256.42 173.47,267.03 180.75,273.32
             190.36,281.62 201.01,269.61 205.74,262.00
             214.88,247.28 222.49,230.71 229.73,215.00
             233.33,207.19 239.86,193.94 242.00,186.00
             242.00,186.00 248.05,206.00 248.05,206.00
             249.48,209.36 253.59,215.47 253.10,219.00
             252.70,221.96 248.55,226.55 246.65,229.00
             246.65,229.00 225.04,256.09 225.04,256.09
             219.61,266.95 227.58,270.20 237.00,269.99
             252.05,269.64 272.17,260.59 278.20,246.00
             280.15,241.29 280.05,236.00 280.00,231.00
             280.00,231.00 277.55,212.00 277.55,212.00
             278.39,209.32 283.69,201.85 285.47,199.00
             288.71,193.81 297.06,179.28 299.00,174.00
             299.00,174.00 304.54,190.00 304.54,190.00
             304.54,190.00 311.00,204.00 311.00,204.00
             300.44,209.03 290.17,225.91 287.04,237.00
             285.20,243.51 285.11,251.27 292.02,254.83
             297.98,257.90 306.37,254.44 312.00,252.00
             324.60,246.54 337.63,235.76 337.99,221.00
             338.20,212.16 336.79,211.86 335.00,204.00
             335.00,204.00 348.00,200.17 348.00,200.17
             366.14,197.53 389.14,198.67 404.00,210.63
             410.21,215.63 416.27,223.76 416.79,232.00
             417.14,237.59 414.58,242.92 410.82,246.91
             406.58,251.41 403.11,251.48 402.00,258.00
             405.90,257.96 408.34,258.07 412.00,256.33
             422.13,251.51 426.98,242.90 427.00,232.00
             427.01,228.46 427.27,222.19 426.37,219.00
             424.21,211.37 419.62,204.55 413.91,199.15
             399.86,185.88 383.54,182.97 365.00,183.00
             349.81,183.02 342.65,186.92 329.00,191.00
             323.90,178.01 320.99,178.80 320.09,163.00
             319.83,158.32 321.19,151.45 322.69,147.00
             323.71,144.00 325.80,139.41 324.40,136.28
             322.65,132.37 315.58,132.96 312.00,133.00
             308.19,133.05 300.34,133.42 297.73,136.43
             297.73,136.43 291.21,156.00 291.21,156.00
             291.21,156.00 278.30,181.00 278.30,181.00
             274.81,187.15 271.90,191.30 269.00,198.00
             264.43,189.94 260.70,178.31 262.67,169.00
             262.67,169.00 267.48,151.02 267.48,151.02
             267.32,149.56 266.76,148.54 265.68,147.56
             260.76,143.05 243.47,145.25 240.27,149.51
             238.75,151.53 236.49,160.07 235.46,163.00
             235.46,163.00 226.00,185.00 226.00,185.00
             226.00,185.00 205.41,231.00 205.41,231.00
             205.41,231.00 198.00,247.00 198.00,247.00
             196.11,240.29 198.23,232.60 199.99,226.00
             199.99,226.00 202.21,216.00 202.21,216.00
             202.21,216.00 207.67,196.00 207.67,196.00
             209.03,186.64 201.31,184.93 194.00,187.00
             194.00,187.00 194.00,179.00 194.00,179.00
             194.00,176.47 194.11,173.41 193.35,171.00
             191.38,164.72 187.30,162.12 181.00,162.00
             166.70,161.74 158.96,167.56 148.95,177.28
             145.27,180.86 142.25,185.23 137.99,188.16
             137.99,188.16 100.00,210.00 100.00,210.00
             90.37,199.36 74.58,187.61 63.00,178.65
             49.85,168.48 36.50,156.16 33.46,139.00
             29.85,118.56 47.98,95.70 62.67,83.42
             84.32,65.32 114.45,48.02 141.00,38.46
             157.72,32.44 175.08,27.21 193.00,27.00
             199.07,26.93 212.41,27.24 218.00,28.53
             218.00,28.53 225.00,31.09 225.00,31.09
             237.44,35.95 246.39,43.49 244.71,58.00
             244.34,61.25 243.86,64.97 242.65,68.00
             228.78,102.95 188.94,125.69 153.00,130.28
             146.37,131.13 144.25,132.15 137.00,131.99
             125.16,131.71 114.72,127.73 105.58,120.39
             103.83,118.99 100.20,116.04 98.61,119.33
             96.45,123.83 101.78,131.35 104.81,134.33
             113.40,142.80 129.06,147.86 141.00,148.00
             141.00,148.00 155.00,148.00 155.00,148.00
             170.96,147.98 199.69,140.20 214.00,133.03
             243.32,118.35 268.65,87.68 269.96,54.00
             270.16,48.89 269.48,46.81 268.61,42.00
             268.61,42.00 267.32,35.00 267.32,35.00
             261.57,17.08 242.90,7.57 226.00,3.26
             219.39,1.57 216.09,0.09 209.00,0.00
             209.00,0.00 179.00,0.00 179.00,0.00
             165.63,0.02 145.69,5.93 133.00,10.46
             101.80,21.60 69.62,37.24 44.17,58.77
             26.71,73.53 0.12,101.56 0.00,126.00
             0.00,126.00 0.00,133.00 0.00,133.00
             0.04,156.89 22.63,175.09 39.42,188.91
             39.42,188.91 64.33,206.49 64.33,206.49
             64.33,206.49 81.00,218.00 81.00,218.00 Z
           M 180.00,179.00
           C 181.86,186.08 179.14,192.35 177.03,199.00
             177.03,199.00 163.53,236.00 163.53,236.00
             161.84,239.80 157.71,251.25 153.74,252.51
             148.07,254.31 148.00,241.05 148.00,238.00
             147.97,218.33 159.18,185.08 180.00,179.00 Z
           M 318.00,214.00
           C 318.00,229.30 316.73,233.73 302.00,241.00
             303.79,231.50 308.99,218.64 318.00,214.00 Z
           M 94.00,230.00
           C 96.93,252.22 93.35,270.42 74.91,285.34
             66.28,292.32 39.56,304.41 41.18,283.00
             42.66,263.56 62.10,249.64 77.00,239.82
             82.51,236.19 87.72,232.17 94.00,230.00 Z
           M 261.00,234.00
           C 258.43,242.36 253.20,249.50 245.00,253.00
             247.54,248.27 256.80,237.47 261.00,234.00 Z
           M 244.00,253.00
           C 244.00,253.00 244.00,254.00 244.00,254.00
             244.00,254.00 243.00,253.00 243.00,253.00
             243.00,253.00 244.00,253.00 244.00,253.00 Z" />
</svg>
