<?xml version="1.0" encoding="UTF-8" standalone="no"?>
<!DOCTYPE svg PUBLIC "-//W3C//DTD SVG 20010904//EN"
              "http://www.w3.org/TR/2001/REC-SVG-20010904/DTD/svg10.dtd">

<svg xmlns="http://www.w3.org/2000/svg"
     width="15.1554mm" height="15.9174mm"
     viewBox="0 0 179 188">
  <path id="Selection"
        fill="black"
        d="M 0.00,0.00
           C 0.00,0.00 0.00,188.00 0.00,188.00
             0.00,188.00 179.00,188.00 179.00,188.00
             179.00,188.00 179.00,26.00 179.00,26.00
             172.60,29.02 165.26,38.42 160.42,44.00
             160.42,44.00 132.00,76.00 132.00,76.00
             129.85,78.36 120.66,89.24 118.72,90.09
             114.49,91.92 106.71,80.87 103.96,78.00
             101.05,74.95 89.15,64.24 88.58,61.00
             87.88,56.99 96.00,49.25 99.00,47.00
             101.86,52.33 106.37,56.52 110.42,60.98
             112.04,62.76 114.27,65.37 116.91,65.37
             120.84,65.37 127.53,54.19 129.88,51.00
             129.88,51.00 153.37,19.00 153.37,19.00
             157.58,13.37 163.55,6.93 165.00,0.00
             165.00,0.00 0.00,0.00 0.00,0.00 Z
           M 71.00,109.00
           C 61.85,106.11 57.07,100.32 46.00,101.71
             42.23,102.18 37.98,104.01 36.84,108.01
             34.67,115.68 49.08,117.82 54.00,119.15
             69.51,123.35 83.94,129.68 79.47,149.00
             75.22,167.42 49.92,169.52 35.00,164.96
             30.92,163.72 21.81,160.00 20.15,155.91
             18.60,152.06 23.72,146.70 26.00,144.00
             36.19,149.72 42.50,154.75 55.00,152.79
             61.06,151.84 66.66,146.31 63.22,141.21
             60.66,137.40 52.33,135.47 48.00,134.37
             34.04,130.84 15.92,124.59 20.93,106.00
             21.77,102.87 23.28,99.57 25.39,97.09
             34.14,86.82 52.03,86.22 64.00,90.03
             67.61,91.18 76.63,94.53 76.68,99.04
             76.70,101.34 72.41,106.77 71.00,109.00 Z
           M 104.00,142.00
           C 104.98,144.72 105.59,146.63 107.42,148.98
             117.35,161.78 129.01,153.28 137.00,151.00
             137.00,151.00 142.00,160.00 142.00,160.00
             134.97,164.00 129.25,166.64 121.00,166.96
             115.48,167.18 110.00,166.05 105.00,163.67
             77.08,150.36 88.58,104.60 120.00,107.33
             130.05,108.20 139.21,113.66 143.48,123.00
             144.96,126.24 148.64,138.27 145.43,140.83
             143.75,142.15 140.07,141.99 138.00,142.00
             138.00,142.00 104.00,142.00 104.00,142.00 Z
           M 104.00,132.00
           C 104.00,132.00 133.00,132.00 133.00,132.00
             132.33,127.78 131.46,124.30 127.89,121.51
             125.47,119.61 122.98,119.18 120.00,119.04
             110.49,118.61 105.05,122.15 104.00,132.00 Z" />
</svg>
