<?xml version="1.0" encoding="UTF-8" standalone="no"?>
<!DOCTYPE svg PUBLIC "-//W3C//DTD SVG 20010904//EN"
              "http://www.w3.org/TR/2001/REC-SVG-20010904/DTD/svg10.dtd">

<svg xmlns="http://www.w3.org/2000/svg"
     width="4.54167in" height="4.54167in"
     viewBox="0 0 327 327">
  <path id="Selection"
        fill="black" stroke="black" stroke-width="1"
        d="M 46.00,0.11
           C 17.48,5.12 0.05,24.96 0.00,54.00
             0.00,54.00 0.00,273.00 0.00,273.00
             0.01,281.78 1.58,290.00 5.32,298.00
             14.31,317.20 33.41,326.97 54.00,327.00
             54.00,327.00 273.00,327.00 273.00,327.00
             281.78,326.99 290.00,325.42 298.00,321.68
             317.20,312.69 326.97,293.59 327.00,273.00
             327.00,273.00 327.00,55.00 327.00,55.00
             326.95,22.72 305.64,0.05 273.00,0.11
             273.00,0.11 123.00,0.11 123.00,0.11
             123.00,0.11 74.00,0.11 74.00,0.11
             74.00,0.11 46.00,0.11 46.00,0.11 Z
           M 91.00,62.00
           C 91.00,62.00 133.00,83.25 133.00,83.25
             133.00,83.25 210.00,121.75 210.00,121.75
             210.00,121.75 235.00,134.25 235.00,134.25
             237.62,135.55 243.49,138.05 244.98,140.39
             246.22,142.34 246.00,145.73 246.00,148.00
             246.00,148.00 246.00,172.00 246.00,172.00
             245.84,180.17 241.78,180.36 235.00,183.75
             235.00,183.75 210.00,196.25 210.00,196.25
             210.00,196.25 132.00,235.25 132.00,235.25
             132.00,235.25 90.00,256.00 90.00,256.00
             90.00,256.00 90.00,225.00 90.00,225.00
             90.00,225.00 91.02,217.39 91.02,217.39
             91.02,217.39 99.00,212.25 99.00,212.25
             99.00,212.25 116.00,203.75 116.00,203.75
             116.00,203.75 174.00,174.75 174.00,174.75
             174.00,174.75 205.00,160.00 205.00,160.00
             205.00,160.00 205.00,158.00 205.00,158.00
             198.57,156.17 181.07,146.78 174.00,143.25
             174.00,143.25 116.00,114.25 116.00,114.25
             116.00,114.25 99.00,105.75 99.00,105.75
             96.67,104.59 92.41,102.78 91.02,100.61
             89.78,98.66 90.00,95.27 90.00,93.00
             89.99,86.54 89.06,66.88 91.00,62.00 Z" />
</svg>
