<?xml version="1.0" encoding="UTF-8" standalone="no"?>
<!DOCTYPE svg PUBLIC "-//W3C//DTD SVG 20010904//EN"
              "http://www.w3.org/TR/2001/REC-SVG-20010904/DTD/svg10.dtd">

<svg xmlns="http://www.w3.org/2000/svg"
     width="6.56944in" height="6.56944in"
     viewBox="0 0 473 473">
  <path id="Selection"
        fill="black" stroke="black" stroke-width="1"
        d="M 68.00,400.00
           C 68.00,400.00 71.33,390.00 71.33,390.00
             75.35,381.55 83.26,375.00 93.00,375.78
             107.93,376.99 119.87,394.06 112.56,408.00
             106.70,419.18 97.09,418.87 91.00,423.00
             104.76,432.74 118.81,442.34 134.00,449.74
             169.59,467.09 202.65,473.46 242.00,473.00
             242.00,473.00 274.00,469.41 274.00,469.41
             321.61,461.42 363.57,442.07 399.00,408.91
             399.00,408.91 408.17,399.00 408.17,399.00
             444.92,358.16 471.35,301.61 472.00,246.00
             472.00,246.00 473.00,231.00 473.00,231.00
             473.00,231.00 472.00,215.00 472.00,215.00
             471.36,159.56 449.36,85.05 432.00,32.00
             432.00,32.00 420.72,49.00 420.72,49.00
             420.72,49.00 408.00,72.00 408.00,72.00
             403.27,69.76 393.17,59.81 388.00,55.61
             375.14,45.16 360.75,34.87 346.00,27.26
             328.58,18.27 313.10,11.67 294.00,6.89
             240.08,-6.58 178.90,1.09 129.00,25.26
             72.24,52.75 26.66,110.61 9.43,171.00
             5.43,185.00 2.55,199.51 1.04,214.00
             1.04,214.00 1.04,224.00 1.04,224.00
             1.04,224.00 0.00,235.00 0.00,235.00
             0.00,235.00 0.00,239.00 0.00,239.00
             0.00,239.00 1.04,249.00 1.04,249.00
             1.04,249.00 1.04,258.00 1.04,258.00
             2.96,276.79 7.04,295.12 13.00,313.00
             20.60,335.79 31.26,356.69 45.63,376.00
             51.36,383.70 60.30,394.49 68.00,400.00 Z
           M 430.00,51.00
           C 430.00,51.00 446.15,103.00 446.15,103.00
             446.15,103.00 456.20,145.00 456.20,145.00
             459.87,163.05 464.97,196.07 465.00,214.00
             465.00,214.00 465.00,234.00 465.00,234.00
             465.00,234.00 464.09,246.00 464.09,246.00
             460.61,295.70 442.31,345.05 398.00,372.39
             384.89,380.48 373.79,385.46 359.00,389.71
             342.09,394.57 325.55,397.81 308.00,399.09
             308.00,399.09 298.00,400.00 298.00,400.00
             298.00,400.00 231.00,400.00 231.00,400.00
             231.00,400.00 215.00,399.00 215.00,399.00
             215.00,399.00 199.00,399.00 199.00,399.00
             199.00,399.00 184.00,398.00 184.00,398.00
             184.00,398.00 166.00,398.00 166.00,398.00
             158.71,398.04 145.82,401.76 140.00,398.00
             147.58,394.12 166.12,388.73 175.00,385.98
             175.00,385.98 244.00,362.99 244.00,362.99
             300.37,339.80 344.24,301.67 376.42,250.00
             383.73,238.26 398.98,209.86 402.00,197.00
             402.00,197.00 389.31,218.00 389.31,218.00
             380.62,231.49 370.86,244.25 359.91,256.00
             329.49,288.65 289.45,315.97 248.00,332.55
             224.59,341.92 204.17,346.56 180.00,352.53
             180.00,352.53 136.00,362.88 136.00,362.88
             129.45,364.39 118.29,367.64 112.00,366.81
             105.80,366.00 98.67,360.54 94.00,356.56
             78.25,343.13 69.24,317.40 69.00,297.00
             68.79,278.71 69.24,267.65 75.34,250.00
             79.74,237.28 85.69,226.66 93.89,216.00
             101.22,206.47 108.29,199.32 118.00,192.16
             144.58,172.55 172.63,165.25 205.00,162.04
             205.00,162.04 213.00,162.04 213.00,162.04
             237.94,160.21 267.97,159.60 292.00,153.27
             332.04,142.72 372.96,119.81 400.83,89.00
             414.86,73.48 417.27,67.42 428.00,51.00
             428.00,51.00 430.00,51.00 430.00,51.00 Z" />
</svg>
