<?xml version="1.0" encoding="UTF-8" standalone="no"?>
<!DOCTYPE svg PUBLIC "-//W3C//DTD SVG 20010904//EN"
              "http://www.w3.org/TR/2001/REC-SVG-20010904/DTD/svg10.dtd">

<svg xmlns="http://www.w3.org/2000/svg"
     width="5.15278in" height="5.68056in"
     viewBox="0 0 371 409">
  <path id="Selection"
        fill="black" stroke="black" stroke-width="1"
        d="M 227.00,200.00
           C 227.00,200.00 275.00,187.15 275.00,187.15
             275.00,187.15 335.00,173.60 335.00,173.60
             335.00,173.60 371.00,167.00 371.00,167.00
             368.68,155.60 350.83,137.89 342.00,130.44
             311.02,104.30 269.31,88.11 230.00,79.42
             230.00,79.42 201.00,74.00 201.00,74.00
             197.74,73.55 186.34,72.25 184.10,70.98
             179.85,68.58 175.05,57.59 172.75,53.00
             167.88,43.25 163.35,33.28 159.69,23.00
             159.69,23.00 152.00,0.00 152.00,0.00
             133.16,6.29 100.71,17.98 84.00,27.42
             78.31,30.64 65.42,37.56 63.60,44.01
             62.30,48.64 66.03,53.63 68.81,56.96
             68.81,56.96 96.00,82.00 96.00,82.00
             116.24,102.48 122.32,125.98 122.00,154.00
             121.82,169.11 114.11,187.99 106.72,201.00
             94.02,223.35 74.25,245.78 55.00,262.72
             55.00,262.72 32.00,281.46 32.00,281.46
             17.78,293.18 -3.35,314.78 0.47,335.00
             1.36,339.73 4.47,345.97 7.10,350.00
             17.25,365.52 36.19,377.23 53.00,384.42
             87.26,399.07 124.11,404.56 161.00,407.09
             161.00,407.09 171.00,408.00 171.00,408.00
             174.20,408.03 183.20,408.51 185.61,406.98
             187.74,405.62 191.87,397.57 193.22,395.00
             193.22,395.00 207.95,361.00 207.95,361.00
             223.72,318.00 230.07,279.67 230.00,234.00
             230.00,234.00 227.00,200.00 227.00,200.00 Z
           M 150.00,5.00
           C 150.00,5.00 159.00,39.00 159.00,39.00
             159.00,39.00 97.00,29.00 97.00,29.00
             101.20,24.81 111.33,20.45 117.00,18.00
             126.35,13.96 140.46,7.57 150.00,5.00 Z
           M 95.00,34.00
           C 105.90,37.15 147.97,44.49 159.00,45.00
             153.75,51.01 142.31,55.60 135.00,59.25
             131.62,60.93 127.91,63.34 124.00,62.07
             119.55,60.62 110.90,50.72 107.00,47.09
             103.07,43.43 96.40,39.31 95.00,34.00 Z
           M 107.00,59.00
           C 107.00,59.00 74.00,53.00 74.00,53.00
             74.05,50.98 74.00,48.92 74.74,47.00
             76.16,43.28 83.53,34.81 88.00,36.25
             90.35,37.01 92.83,40.17 94.42,42.00
             99.03,47.30 104.41,52.37 107.00,59.00 Z
           M 164.00,50.00
           C 164.00,50.00 172.00,70.00 172.00,70.00
             165.84,69.50 145.47,66.91 141.00,64.00
             141.00,64.00 164.00,50.00 164.00,50.00 Z
           M 112.00,92.00
           C 112.00,92.00 99.96,78.00 99.96,78.00
             99.96,78.00 84.00,62.00 84.00,62.00
             87.02,62.47 103.55,67.23 105.30,68.82
             108.78,71.99 111.77,87.11 112.00,92.00 Z
           M 156.00,76.00
           C 156.00,76.00 138.00,89.00 138.00,89.00
             138.00,89.00 122.00,102.00 122.00,102.00
             120.27,89.72 115.81,80.18 111.00,69.00
             111.00,69.00 156.00,76.00 156.00,76.00 Z
           M 162.00,77.00
           C 167.02,87.77 166.00,106.98 166.00,119.00
             166.00,119.00 147.00,113.02 147.00,113.02
             147.00,113.02 129.00,108.00 129.00,108.00
             134.90,97.90 151.92,83.37 162.00,77.00 Z
           M 225.00,89.00
           C 225.00,89.00 204.00,100.31 204.00,100.31
             204.00,100.31 175.00,118.00 175.00,118.00
             175.00,107.97 174.18,98.67 171.28,89.00
             171.28,89.00 168.00,79.00 168.00,79.00
             168.00,79.00 225.00,89.00 225.00,89.00 Z
           M 232.00,91.00
           C 231.84,109.01 220.51,124.38 213.00,140.00
             213.00,140.00 179.00,124.00 179.00,124.00
             183.98,119.36 191.24,115.15 197.00,111.33
             206.77,104.85 221.41,95.56 232.00,91.00 Z
           M 113.00,92.00
           C 113.00,92.00 113.00,93.00 113.00,93.00
             113.00,93.00 112.00,92.00 112.00,92.00
             112.00,92.00 113.00,92.00 113.00,92.00 Z
           M 299.00,114.00
           C 299.00,114.00 283.00,118.72 283.00,118.72
             283.00,118.72 253.00,128.69 253.00,128.69
             253.00,128.69 222.00,140.00 222.00,140.00
             228.67,124.26 235.59,109.35 237.00,92.00
             246.02,92.81 266.92,99.96 276.00,103.32
             282.43,105.70 293.86,109.91 299.00,114.00 Z
           M 161.00,129.00
           C 161.00,129.00 127.86,158.00 127.86,158.00
             127.86,158.00 127.86,134.00 127.86,134.00
             127.86,134.00 125.00,119.00 125.00,119.00
             132.91,119.36 154.82,124.58 161.00,129.00 Z
           M 305.00,119.00
           C 298.79,131.89 282.32,152.39 273.00,164.00
             268.71,169.34 261.86,178.99 256.00,182.00
             252.42,175.34 246.43,167.34 240.96,162.17
             240.96,162.17 224.00,147.00 224.00,147.00
             224.00,147.00 277.00,126.67 277.00,126.67
             277.00,126.67 305.00,119.00 305.00,119.00 Z
           M 311.00,119.00
           C 327.10,129.51 331.74,131.14 347.00,144.84
             352.73,149.98 359.96,156.88 363.00,164.00
             347.58,164.14 307.41,171.61 291.00,175.00
             291.00,175.00 267.00,180.00 267.00,180.00
             267.00,180.00 278.58,166.00 278.58,166.00
             278.58,166.00 296.57,143.00 296.57,143.00
             296.57,143.00 311.00,119.00 311.00,119.00 Z
           M 174.00,133.00
           C 182.68,137.81 195.65,142.31 203.00,149.00
             203.00,149.00 176.00,162.78 176.00,162.78
             176.00,162.78 158.00,172.00 158.00,172.00
             158.00,172.00 167.95,150.00 167.95,150.00
             167.95,150.00 174.00,133.00 174.00,133.00 Z
           M 163.00,136.00
           C 161.83,149.99 152.52,167.65 146.00,180.00
             146.00,180.00 127.00,167.00 127.00,167.00
             127.00,167.00 127.00,165.00 127.00,165.00
             127.00,165.00 163.00,136.00 163.00,136.00 Z
           M 250.00,185.00
           C 250.00,185.00 188.00,203.67 188.00,203.67
             188.00,203.67 167.00,211.00 167.00,211.00
             172.05,203.95 179.00,198.50 184.72,192.00
             196.00,179.18 203.56,169.16 213.00,155.00
             222.16,159.71 244.12,176.96 250.00,185.00 Z
           M 200.00,159.00
           C 200.00,159.00 175.35,194.00 175.35,194.00
             175.35,194.00 159.00,213.00 159.00,213.00
             156.53,194.69 153.01,195.55 150.00,185.00
             163.22,178.63 187.15,162.66 200.00,159.00 Z
           M 137.00,185.00
           C 133.71,188.89 116.72,200.99 112.00,203.00
             112.00,203.00 123.00,177.00 123.00,177.00
             129.02,178.72 132.26,181.00 137.00,185.00 Z
           M 145.00,193.00
           C 149.25,201.08 152.57,207.69 153.00,217.00
             153.00,217.00 98.00,239.00 98.00,239.00
             108.75,226.68 128.71,214.33 143.00,193.00
             143.00,193.00 145.00,193.00 145.00,193.00 Z
           M 134.00,196.00
           C 134.00,196.00 134.00,197.00 134.00,197.00
             134.00,197.00 133.00,196.00 133.00,196.00
             133.00,196.00 134.00,196.00 134.00,196.00 Z
           M 133.00,197.00
           C 126.70,206.93 110.58,221.60 101.00,228.87
             96.00,232.67 90.90,236.74 85.00,239.00
             85.00,239.00 103.17,216.51 103.17,216.51
             103.17,216.51 116.00,207.14 116.00,207.14
             116.00,207.14 133.00,197.00 133.00,197.00 Z
           M 112.00,203.00
           C 112.00,203.00 112.00,204.00 112.00,204.00
             112.00,204.00 111.00,203.00 111.00,203.00
             111.00,203.00 112.00,203.00 112.00,203.00 Z
           M 218.00,203.00
           C 218.00,203.00 220.00,237.00 220.00,237.00
             210.46,233.50 190.88,221.03 185.00,213.00
             185.00,213.00 218.00,203.00 218.00,203.00 Z
           M 219.00,240.00
           C 216.34,245.12 210.83,247.88 206.00,250.80
             198.27,255.47 175.17,267.47 167.00,269.00
             167.00,269.00 170.63,254.00 170.63,254.00
             170.63,254.00 175.04,226.00 175.04,226.00
             175.04,226.00 175.04,216.00 175.04,216.00
             181.65,216.93 186.54,222.02 192.00,225.67
             200.66,231.44 209.34,236.13 219.00,240.00 Z
           M 167.00,219.00
           C 167.00,234.43 165.08,253.70 159.00,268.00
             148.72,260.64 134.73,244.19 134.00,231.00
             134.00,231.00 167.00,219.00 167.00,219.00 Z
           M 127.00,235.00
           C 130.18,244.18 133.67,251.59 140.18,259.00
             144.40,263.80 152.23,269.91 155.00,275.00
             155.00,275.00 132.00,283.31 132.00,283.31
             132.00,283.31 94.00,296.00 94.00,296.00
             94.00,296.00 109.14,269.00 109.14,269.00
             109.14,269.00 125.00,235.00 125.00,235.00
             125.00,235.00 127.00,235.00 127.00,235.00 Z
           M 85.00,239.00
           C 85.00,239.00 85.00,240.00 85.00,240.00
             85.00,240.00 84.00,239.00 84.00,239.00
             84.00,239.00 85.00,239.00 85.00,239.00 Z
           M 98.00,239.00
           C 98.00,239.00 98.00,240.00 98.00,240.00
             98.00,240.00 97.00,239.00 97.00,239.00
             97.00,239.00 98.00,239.00 98.00,239.00 Z
           M 114.00,240.00
           C 114.00,240.00 102.86,263.00 102.86,263.00
             102.86,263.00 84.00,295.00 84.00,295.00
             78.23,288.46 77.68,278.27 76.58,270.00
             76.09,266.32 75.41,260.77 77.90,257.63
             79.48,255.64 85.51,253.00 88.00,251.75
             88.00,251.75 114.00,240.00 114.00,240.00 Z
           M 220.00,247.00
           C 220.00,257.43 217.39,288.29 215.00,298.00
             197.98,292.31 185.13,286.89 170.00,277.00
             170.00,277.00 199.00,261.14 199.00,261.14
             199.00,261.14 220.00,247.00 220.00,247.00 Z
           M 69.00,262.00
           C 68.40,265.34 67.04,272.89 67.21,276.00
             67.83,288.01 71.16,291.96 74.00,302.00
             74.00,302.00 35.00,312.88 35.00,312.88
             35.00,312.88 13.00,318.00 13.00,318.00
             13.72,310.02 17.84,303.39 22.43,297.00
             32.85,282.48 52.62,269.10 69.00,262.00 Z
           M 214.00,300.00
           C 210.78,305.53 199.90,308.65 194.00,311.30
             194.00,311.30 139.00,333.00 139.00,333.00
             139.00,333.00 149.22,312.00 149.22,312.00
             149.22,312.00 163.00,280.00 163.00,280.00
             169.41,281.83 172.19,284.50 178.00,287.14
             188.98,292.12 202.19,297.62 214.00,300.00 Z
           M 154.00,284.00
           C 154.00,284.00 139.73,317.00 139.73,317.00
             139.73,317.00 129.00,337.00 129.00,337.00
             117.14,333.61 94.80,316.24 90.00,305.00
             90.00,305.00 133.00,291.31 133.00,291.31
             133.00,291.31 154.00,284.00 154.00,284.00 Z
           M 214.00,306.00
           C 210.49,324.63 206.00,343.01 200.00,361.00
             200.00,361.00 183.00,357.35 183.00,357.35
             183.00,357.35 155.00,349.31 155.00,349.31
             155.00,349.31 137.00,341.00 137.00,341.00
             137.00,341.00 157.00,332.58 157.00,332.58
             157.00,332.58 186.00,319.69 186.00,319.69
             186.00,319.69 214.00,306.00 214.00,306.00 Z
           M 74.00,310.00
           C 74.00,310.00 47.87,348.00 47.87,348.00
             45.90,350.63 39.65,359.93 36.91,360.66
             33.53,361.58 29.25,356.27 27.30,354.00
             20.90,346.54 12.90,333.91 12.00,324.00
             12.00,324.00 46.00,316.63 46.00,316.63
             46.00,316.63 74.00,310.00 74.00,310.00 Z
           M 82.00,313.00
           C 93.32,324.32 103.11,333.36 118.00,340.00
             118.00,340.00 92.00,350.05 92.00,350.05
             92.00,350.05 41.00,367.00 41.00,367.00
             42.91,360.42 51.07,352.49 55.58,347.00
             55.58,347.00 82.00,313.00 82.00,313.00 Z
           M 123.00,346.00
           C 123.00,346.00 123.00,347.00 123.00,347.00
             123.00,347.00 122.00,346.00 122.00,346.00
             122.00,346.00 123.00,346.00 123.00,346.00 Z
           M 193.00,363.00
           C 193.00,363.00 159.00,375.02 159.00,375.02
             159.00,375.02 100.00,392.00 100.00,392.00
             100.00,392.00 122.31,359.00 122.31,359.00
             124.12,356.18 128.19,348.42 131.18,347.40
             133.66,346.55 144.72,351.29 148.00,352.28
             162.19,356.56 178.33,361.02 193.00,363.00 Z
           M 122.00,347.00
           C 119.54,354.78 106.67,372.65 101.42,380.00
             99.33,382.93 95.56,389.32 91.96,390.08
             89.44,390.61 81.68,387.58 79.00,386.58
             66.28,381.78 57.42,377.46 46.00,370.00
             46.00,370.00 78.00,360.58 78.00,360.58
             78.00,360.58 122.00,347.00 122.00,347.00 Z
           M 198.00,367.00
           C 198.00,367.00 188.20,393.00 188.20,393.00
             188.20,393.00 182.61,402.98 182.61,402.98
             182.61,402.98 174.00,404.00 174.00,404.00
             174.00,404.00 164.00,403.09 164.00,403.09
             164.00,403.09 137.00,400.57 137.00,400.57
             137.00,400.57 110.00,396.00 110.00,396.00
             110.00,396.00 123.00,391.29 123.00,391.29
             123.00,391.29 146.00,384.58 146.00,384.58
             146.00,384.58 176.00,374.95 176.00,374.95
             176.00,374.95 198.00,367.00 198.00,367.00 Z" />
</svg>
