<?xml version="1.0" encoding="UTF-8" standalone="no"?>
<!DOCTYPE svg PUBLIC "-//W3C//DTD SVG 20010904//EN"
              "http://www.w3.org/TR/2001/REC-SVG-20010904/DTD/svg10.dtd">

<svg xmlns="http://www.w3.org/2000/svg"
     width="2.91667in" height="2.91667in"
     viewBox="0 0 210 210">
  <path id="Selection"
        fill="black" stroke="black" stroke-width="1"
        d="M 14.00,174.00
           C -5.35,178.06 -3.94,207.51 17.00,209.66
             26.69,210.66 36.22,202.72 36.90,193.00
             37.30,187.29 35.35,184.95 36.35,182.00
             37.39,178.90 46.25,170.75 49.00,168.00
             49.00,168.00 78.00,139.00 78.00,139.00
             78.00,139.00 90.00,127.01 90.00,127.01
             91.45,125.61 93.87,123.03 95.94,122.76
             100.46,122.18 99.99,129.27 100.00,132.00
             100.00,132.00 100.00,174.00 100.00,174.00
             78.67,179.28 84.93,212.43 107.00,209.69
             109.74,209.35 112.66,208.35 114.98,206.86
             117.81,205.05 119.65,202.98 121.16,200.00
             122.86,196.64 123.12,193.70 122.96,190.00
             122.73,184.62 121.14,180.92 116.96,177.39
             115.17,175.88 112.19,174.46 111.02,172.61
             109.78,170.65 110.00,167.29 110.00,165.00
             110.00,165.00 110.00,138.00 110.00,138.00
             110.00,135.20 109.70,127.30 110.60,125.10
             112.59,120.22 118.76,121.05 122.03,112.00
             124.26,105.85 121.18,97.83 123.52,94.00
             124.74,92.00 131.89,85.11 134.00,83.00
             134.00,83.00 154.00,63.00 154.00,63.00
             154.00,63.00 173.00,44.00 173.00,44.00
             178.05,38.95 179.56,35.62 187.00,36.00
             187.00,36.00 187.00,88.00 187.00,88.00
             178.87,89.66 173.68,95.68 173.10,104.00
             172.67,110.06 174.70,115.26 179.30,119.29
             181.30,121.05 184.82,122.63 185.98,124.41
             187.22,126.33 187.00,129.75 187.00,132.00
             187.00,132.00 187.00,166.00 187.00,166.00
             186.83,175.22 183.46,172.93 178.21,178.21
             175.15,181.30 173.40,185.69 173.10,190.00
             172.82,193.90 173.52,197.61 175.61,200.96
             177.27,203.61 179.34,205.54 182.04,207.10
             184.33,208.42 187.35,209.57 190.00,209.78
             212.09,211.53 217.42,178.56 196.00,174.00
             196.00,174.00 196.00,132.00 196.00,132.00
             196.00,129.71 195.78,126.35 197.02,124.39
             198.19,122.54 201.18,121.11 202.96,119.61
             206.70,116.46 209.32,111.91 209.80,107.00
             210.65,98.39 204.35,89.78 196.00,88.00
             196.00,88.00 196.00,36.00 196.00,36.00
             216.33,31.86 213.24,2.41 193.00,0.34
             183.31,-0.66 173.78,7.28 173.10,17.00
             172.70,22.71 174.65,25.05 173.65,28.00
             172.61,31.10 163.75,39.25 161.00,42.00
             161.00,42.00 132.00,71.00 132.00,71.00
             132.00,71.00 120.00,82.99 120.00,82.99
             118.55,84.39 116.13,86.97 114.06,87.24
             109.54,87.82 110.01,80.73 110.00,78.00
             110.00,78.00 110.00,36.00 110.00,36.00
             127.58,32.26 127.66,6.18 110.00,1.17
             105.54,-0.09 102.28,0.13 98.00,1.95
             95.19,3.15 92.73,4.79 90.79,7.18
             88.35,10.19 87.24,13.17 87.25,17.00
             87.25,17.00 87.25,28.00 87.25,28.00
             86.49,31.27 78.72,38.28 76.00,41.00
             76.00,41.00 48.00,69.00 48.00,69.00
             44.85,72.15 31.71,85.83 29.00,87.16
             25.33,89.10 23.27,86.64 17.00,87.16
             8.19,87.74 1.22,95.37 0.34,104.00
             -0.21,109.35 2.24,115.14 6.10,118.79
             8.85,121.39 11.64,122.27 12.98,124.39
             14.22,126.35 14.00,129.71 14.00,132.00
             14.00,132.00 14.00,174.00 14.00,174.00 Z
           M 100.00,36.00
           C 100.00,36.00 100.00,88.00 100.00,88.00
             92.99,90.39 90.16,94.64 87.00,101.00
             81.22,99.72 79.73,100.93 74.00,101.00
             74.00,101.00 45.00,101.00 45.00,101.00
             41.67,100.99 34.77,101.39 35.82,95.98
             36.48,92.60 46.16,83.84 49.00,81.00
             49.00,81.00 83.00,47.00 83.00,47.00
             88.23,41.77 92.14,35.23 100.00,36.00 Z
           M 23.00,123.00
           C 29.98,120.77 33.77,116.98 36.00,110.00
             36.00,110.00 79.00,110.00 79.00,110.00
             81.84,110.01 88.45,109.48 87.97,114.06
             87.62,117.42 77.75,126.25 75.00,129.00
             75.00,129.00 42.00,162.00 42.00,162.00
             39.27,164.73 31.35,173.53 28.02,174.18
             22.61,175.23 23.01,168.33 23.00,165.00
             23.00,165.00 23.00,123.00 23.00,123.00 Z" />
</svg>
