<?xml version="1.0" encoding="UTF-8" standalone="no"?>
<!DOCTYPE svg PUBLIC "-//W3C//DTD SVG 20010904//EN"
              "http://www.w3.org/TR/2001/REC-SVG-20010904/DTD/svg10.dtd">

<svg xmlns="http://www.w3.org/2000/svg"
     width="93.1381mm" height="104.428mm"
     viewBox="0 0 528 592">
  <path id="Selection #3"
        fill="black" stroke="black" stroke-width="0"
        d="M 182.00,311.00
           C 182.00,311.00 182.00,491.00 182.00,491.00
             182.00,491.00 183.02,498.79 183.02,498.79
             183.02,498.79 194.00,506.28 194.00,506.28
             194.00,506.28 219.00,520.58 219.00,520.58
             219.00,520.58 302.00,568.00 302.00,568.00
             302.00,568.00 329.00,583.42 329.00,583.42
             329.00,583.42 346.00,592.00 346.00,592.00
             346.00,592.00 346.00,412.00 346.00,412.00
             346.00,412.00 345.01,404.63 345.01,404.63
             345.01,404.63 334.00,397.58 334.00,397.58
             334.00,397.58 308.00,382.72 308.00,382.72
             308.00,382.72 229.00,337.58 229.00,337.58
             229.00,337.58 182.00,311.00 182.00,311.00 Z" />
  <path id="Selection #3"
        fill="black" stroke="black" stroke-width="0"
        d="M 363.00,385.00
           C 363.00,385.00 406.00,361.28 406.00,361.28
             406.00,361.28 491.00,312.85 491.00,312.85
             491.00,312.85 516.00,298.58 516.00,298.58
             516.00,298.58 527.01,291.39 527.01,291.39
             527.01,291.39 528.00,284.00 528.00,284.00
             528.00,284.00 528.00,104.00 528.00,104.00
             528.00,104.00 510.00,113.15 510.00,113.15
             510.00,113.15 483.00,128.58 483.00,128.58
             483.00,128.58 400.00,176.00 400.00,176.00
             400.00,176.00 375.00,190.28 375.00,190.28
             375.00,190.28 363.99,197.53 363.99,197.53
             363.99,197.53 363.00,205.00 363.00,205.00
             363.00,205.00 363.00,385.00 363.00,385.00 Z" />
  <path id="Selection #3"
        fill="black" stroke="black" stroke-width="0"
        d="M 182.00,104.00
           C 182.00,104.00 182.00,284.00 182.00,284.00
             182.00,284.00 183.02,291.61 183.02,291.61
             183.02,291.61 194.00,298.85 194.00,298.85
             194.00,298.85 219.00,313.15 219.00,313.15
             219.00,313.15 300.00,359.42 300.00,359.42
             300.00,359.42 346.00,385.00 346.00,385.00
             346.00,385.00 346.00,205.00 346.00,205.00
             346.00,205.00 344.98,197.39 344.98,197.39
             344.98,197.39 334.00,190.15 334.00,190.15
             334.00,190.15 309.00,175.85 309.00,175.85
             309.00,175.85 228.00,129.58 228.00,129.58
             228.00,129.58 182.00,104.00 182.00,104.00 Z"/>
  <path id="Selection #3"
        fill="black" stroke="black" stroke-width="0"
        d="M 0.00,0.00
           C 0.00,0.00 0.00,179.00 0.00,179.00
             0.00,179.00 1.02,186.79 1.02,186.79
             1.02,186.79 12.00,194.28 12.00,194.28
             12.00,194.28 38.00,209.15 38.00,209.15
             38.00,209.15 119.00,255.42 119.00,255.42
             119.00,255.42 164.00,281.00 164.00,281.00
             164.00,281.00 164.00,100.00 164.00,100.00
             164.00,100.00 163.01,92.63 163.01,92.63
             163.01,92.63 152.00,85.58 152.00,85.58
             152.00,85.58 127.00,71.28 127.00,71.28
             127.00,71.28 41.00,22.15 41.00,22.15
             41.00,22.15 16.00,7.85 16.00,7.85
             16.00,7.85 0.00,0.00 0.00,0.00 Z" /> 
</svg>
