<?xml version="1.0" standalone="no"?>
<!DOCTYPE svg PUBLIC "-//W3C//DTD SVG 20010904//EN"
 "http://www.w3.org/TR/2001/REC-SVG-20010904/DTD/svg10.dtd">
<svg version="1.0" xmlns="http://www.w3.org/2000/svg"
 width="271.000000pt" height="221.000000pt" viewBox="0 0 271.000000 221.000000"
 preserveAspectRatio="xMidYMid meet">
<metadata>
Created by potrace 1.15, written by Peter Selinger 2001-2017
</metadata>
<g transform="translate(0.000000,221.000000) scale(0.100000,-0.100000)"
fill="#000000" stroke="none">
<path d="M455 1118 c-219 -579 -400 -1059 -403 -1066 -3 -10 16 -12 88 -10
l92 3 94 255 c52 140 101 274 110 298 l16 42 486 -2 487 -3 110 -298 110 -297
87 0 c49 0 88 4 88 9 0 5 -180 483 -399 1062 l-399 1054 -84 3 -84 3 -399
-1053z m699 248 c114 -307 206 -562 206 -567 0 -5 -180 -9 -425 -9 -234 0
-425 3 -425 6 0 4 95 265 212 581 133 362 214 569 219 561 4 -8 100 -265 213
-572z"/>
<path d="M1434 1976 l71 -194 205 -4 c185 -4 210 -7 256 -27 103 -45 157 -135
158 -261 1 -98 -18 -160 -65 -214 -53 -60 -102 -79 -229 -85 l-106 -6 186
-505 c103 -278 202 -535 220 -572 l34 -68 244 0 c228 0 244 1 240 18 -4 14
-283 774 -317 865 -10 26 -8 29 31 55 70 45 171 153 201 215 65 133 87 354 52
505 -37 156 -151 295 -305 370 -165 81 -308 102 -695 102 l-252 0 71 -194z"/>
</g>
</svg>
